<svg viewBox="0 0 127 127" fill="none" xmlns="http://www.w3.org/2000/svg"><path d="M38.626 62.07v-.498h3.482v.498h-1.46v4.143h-.562V62.07h-1.46ZM42.342 66.213V61.57h.561v2.067h2.477V61.57h.561v4.643h-.561v-2.078h-2.477v2.078h-.561ZM46.426 66.213V61.57h2.802v.497h-2.24v1.57h2.095v.498h-2.096v1.577h2.276v.498h-2.837v.003ZM50.508 87.704v5.644H49.23l-2.04-2.965h-.032v2.965h-1.532v-5.644h1.3l2.007 2.954h.043v-2.954h1.532ZM51.041 93.347v-5.643h4.067v1.234h-2.535v.97H54.9v1.235h-2.327v.97h2.525v1.234H51.04ZM55.52 88.94v-1.234h4.904v1.235h-1.697v4.41h-1.511v-4.41h-1.697ZM62.238 93.347l-1.664-5.643h1.71l.772 3.472h.043l.914-3.472h1.344l.914 3.482h.043l.773-3.482h1.709l-1.664 5.644h-1.465l-.96-3.153h-.044l-.96 3.153h-1.465ZM74.214 90.526c0 .627-.122 1.158-.366 1.587a2.44 2.44 0 0 1-.988.978 2.909 2.909 0 0 1-1.39.333c-.51 0-.977-.112-1.391-.336a2.457 2.457 0 0 1-.986-.98c-.244-.432-.366-.958-.366-1.582 0-.625.122-1.159.366-1.588.244-.432.572-.757.986-.978a2.912 2.912 0 0 1 1.392-.332c.513 0 .972.111 1.389.332.414.221.744.549.988.978.244.432.366.96.366 1.588Zm-1.578 0c0-.338-.045-.623-.134-.856a1.103 1.103 0 0 0-.394-.529 1.1 1.1 0 0 0-.64-.18 1.1 1.1 0 0 0-.64.18c-.173.12-.305.297-.394.529a2.412 2.412 0 0 0-.134.856c0 .337.045.622.134.856.09.233.221.408.394.528.173.12.386.18.64.18a1.1 1.1 0 0 0 .64-.18c.173-.12.305-.297.394-.528.089-.232.134-.519.134-.856ZM74.724 93.347v-5.643h2.436c.42 0 .785.076 1.1.228.315.153.559.371.734.658.175.287.262.63.262 1.031 0 .402-.09.745-.27 1.024-.18.277-.429.488-.752.627-.322.143-.698.211-1.127.211H75.65v-1.191h1.146c.18 0 .333-.023.462-.069a.587.587 0 0 0 .295-.216.67.67 0 0 0 .104-.388.7.7 0 0 0-.104-.396.605.605 0 0 0-.295-.227 1.309 1.309 0 0 0-.462-.073h-.541v4.42h-1.532v.004Zm3.307-2.59 1.41 2.59h-1.664l-1.376-2.59h1.63ZM79.71 93.347v-5.643h1.532v2.28h.076l1.697-2.28H84.8l-1.907 2.512 1.95 3.129h-1.828l-1.268-2.116-.508.66v1.456h-1.531l.002.002Z" fill="#1D1D44"/><path d="M20.302 86.573a.308.308 0 0 1-.132.033h-.262c-.307 0-.66-.048-1.064-.147-.404-.099-.797-.218-1.178-.36a5.07 5.07 0 0 1-.983-.476c-.275-.175-.442-.327-.508-.46a12.823 12.823 0 0 1-.033-.95v-.95c0-2.445.18-5 .54-7.665.361-2.664.956-5.547 1.786-8.649.087-.305.18-.693.28-1.163.099-.47.2-.978.312-1.524-.523.414-1.145 1.077-1.867 1.981a39.76 39.76 0 0 0-2.276 3.21 60.532 60.532 0 0 0-2.392 4.065 56.57 56.57 0 0 0-2.18 4.488 47.64 47.64 0 0 0-1.686 4.506c-.47 1.486-.76 2.86-.869 4.127-1.049-.307-1.775-.612-2.18-.916-.403-.308-.606-.679-.606-1.116 0-.393.12-.95.36-1.67A29.42 29.42 0 0 1 6.38 80.38c.437-.983.973-2.08 1.606-3.292a219.798 219.798 0 0 1 2.098-3.917 123.72 123.72 0 0 1 2.573-4.488 59.523 59.523 0 0 1 2.474-3.8 28.823 28.823 0 0 1 2.375-2.949c.774-.83 1.544-1.463 2.308-1.9.305 0 .717.077 1.23.229.513.152 1.016.338 1.506.556.493.219.927.442 1.31.67.382.23.595.422.64.575-.306.612-.665 1.529-1.081 2.75a76.408 76.408 0 0 0-1.263 4.161 97.584 97.584 0 0 0-1.211 4.93 62.636 62.636 0 0 0-.902 4.997 54.286 54.286 0 0 1 1.753-3.752 83.132 83.132 0 0 1 2.113-3.866 90.539 90.539 0 0 1 2.278-3.718 58.46 58.46 0 0 1 2.276-3.292 45.262 45.262 0 0 1 2.08-2.604c.646-.742 1.217-1.288 1.72-1.638.305 0 .716.076 1.23.228.512.153 1.015.338 1.506.557.492.218.927.442 1.31.67.381.229.595.422.64.574-.698 1.245-1.31 2.764-1.834 4.555a55.691 55.691 0 0 0-1.325 5.636 67.779 67.779 0 0 0-.818 5.847c-.186 1.933-.28 3.665-.28 5.194v1.573c0 .546.02 1.114.066 1.704a6.36 6.36 0 0 1-1.097-.114 9.194 9.194 0 0 1-1.245-.313 8.217 8.217 0 0 1-1.097-.442c-.327-.162-.556-.343-.688-.54a12.766 12.766 0 0 1-.033-.95v-.95c0-2.447.18-5.002.54-7.666.362-2.665.956-5.548 1.786-8.65.087-.304.186-.72.295-1.244.11-.523.219-1.07.328-1.638-.612.307-1.306.889-2.08 1.753-.775.863-1.563 1.912-2.36 3.144a47.868 47.868 0 0 0-2.36 4.112 53.832 53.832 0 0 0-2.098 4.603 45 45 0 0 0-1.572 4.653c-.427 1.54-.683 2.954-.77 4.242l-.005.002Z" fill="#C02026"/><path d="M47.43 79.07a78.143 78.143 0 0 1-1.507 4.359 36.654 36.654 0 0 1-1.605 3.62 25.862 25.862 0 0 1-1.834 3.047 24.036 24.036 0 0 1-2.162 2.637c-1.005 1.049-2.042 1.852-3.111 2.408-1.07.556-2.141.835-3.21.835-.547 0-1.088-.06-1.624-.18a8.174 8.174 0 0 1-1.506-.49 6.179 6.179 0 0 1-1.244-.721c-.361-.275-.618-.562-.77-.87 0-.26.152-.49.46-.688.261.242.48.427.655.557.175.132.343.241.508.327.165.087.338.143.523.163.186.02.399.033.64.033 1.245 0 2.462-.366 3.653-1.097 1.191-.732 2.314-1.77 3.376-3.112 1.059-1.343 2.026-2.972 2.9-4.882.874-1.91 1.616-4.046 2.228-6.406-.285.437-.635.97-1.05 1.6a23.299 23.299 0 0 1-1.376 1.88 16.356 16.356 0 0 1-1.557 1.682c-.536.5-1.054.838-1.557 1.013-.35 0-.716-.06-1.097-.18a4.535 4.535 0 0 1-1.082-.51 4.058 4.058 0 0 1-.902-.793 2.399 2.399 0 0 1-.523-1.054c0-.633.02-1.14.066-1.524.043-.381.12-.803.228-1.263.196-.83.485-1.77.87-2.817.38-1.049.83-2.08 1.343-3.096a22.782 22.782 0 0 1 1.704-2.85c.622-.884 1.273-1.577 1.948-2.08.175 0 .394.015.656.048.261.033.536.094.818.18.284.087.556.191.817.31.262.12.493.28.689.476-.242.218-.765.95-1.573 2.194-.807 1.245-1.704 3.035-2.687 5.372-.11.242-.241.59-.394 1.05-.152.459-.3.939-.442 1.442-.142.503-.266.993-.375 1.473-.11.48-.166.864-.166 1.146 0 .175.028.307.082.393.053.087.104.153.147.196.394-.066.917-.389 1.572-.968.656-.579 1.397-1.478 2.228-2.702a38.99 38.99 0 0 0 1.443-2.342c.436-.775.868-1.557 1.295-2.342.427-.785.869-1.595 1.326-2.426.46-.83.95-1.681 1.473-2.555.285 0 .59.033.917.099.328.066.645.147.95.246.305.1.574.209.803.328.228.12.398.246.508.376a132.47 132.47 0 0 0-1.9 4.227 46.184 46.184 0 0 0-1.573 4.226v.005ZM49.69 78.382c0-1.245.257-2.451.77-3.62a11.107 11.107 0 0 1 2.032-3.111c.84-.907 1.8-1.638 2.883-2.195 1.082-.556 2.2-.835 3.357-.835 1.159 0 2.01.284 2.622.85.612.57.917 1.377.917 2.426 0 .503-.072.988-.214 1.458-.142.47-.327.89-.556 1.263-.229.37-.498.67-.803.901-.307.229-.612.343-.917.343-.261 0-.53-.081-.802-.246a2.047 2.047 0 0 1-.67-.64c1.462-1.331 2.194-2.545 2.194-3.638 0-.632-.252-.95-.755-.95-.436 0-.983.209-1.638.623-.655.414-1.29.962-1.9 1.638a11.273 11.273 0 0 0-2.146 3.49 11.112 11.112 0 0 0-.737 4.013c0 1.77.394 2.83 1.179 3.178a5.976 5.976 0 0 0 1.148-.295c.437-.152.907-.355 1.41-.607a20.992 20.992 0 0 0 1.557-.869 20.864 20.864 0 0 0 1.557-1.049.85.85 0 0 1 .228.295.816.816 0 0 1 .1.36c-.371.46-.798.907-1.278 1.344a14.28 14.28 0 0 1-3.03 2.114c-.49.251-.922.409-1.293.475a4.74 4.74 0 0 1-2.032-.67 5.874 5.874 0 0 1-1.654-1.492 7.429 7.429 0 0 1-1.115-2.098 7.407 7.407 0 0 1-.409-2.456h-.005ZM73.345 70.584c-.086 1.354-.328 2.517-.721 3.49a7.61 7.61 0 0 1-1.687 2.555c-.731.732-1.62 1.392-2.67 1.981-1.048.59-2.27 1.159-3.67 1.705 0 .132-.005.267-.015.409a6.245 6.245 0 0 0 .05 1.326c.044.307.12.589.23.85.109.262.261.475.46.638.195.165.446.246.754.246a4.12 4.12 0 0 0 1.737-.393 8.928 8.928 0 0 0 1.62-.968 13.25 13.25 0 0 0 1.443-1.245c.45-.447.846-.856 1.197-1.229.218.196.403.384.556.556-.983 1.31-2.06 2.398-3.229 3.26-1.168.863-2.275 1.414-3.324 1.653-1.507-.176-2.683-.727-3.523-1.654-.841-.927-1.263-2.047-1.263-3.358 0-.896.125-1.806.376-2.735.252-.927.6-1.824 1.05-2.688a15.5 15.5 0 0 1 1.571-2.44c.6-.765 1.245-1.43 1.933-2A9.335 9.335 0 0 1 68.35 69.2c.731-.328 1.458-.493 2.18-.493 1.002.132 1.942.754 2.816 1.867v.01Zm-2.26 1.082c-.59.087-1.202.328-1.834.722-.635.393-1.23.916-1.786 1.572a12.588 12.588 0 0 0-1.524 2.293c-.46.874-.818 1.814-1.082 2.817 1.747-.874 3.2-1.948 4.359-3.228 1.158-1.278 1.78-2.67 1.866-4.178v.002ZM73.183 82.052c0-.96.228-2.309.688-4.046.46-1.737 1.102-3.762 1.933-6.078 1.354-3.69 2.626-6.767 3.817-9.223 1.192-2.456 2.355-4.374 3.49-5.75.262.043.584.152.965.327.382.175.76.366 1.13.574.372.208.704.422 1 .64.294.219.484.394.573.523a40.305 40.305 0 0 0-4.488 6.488c-1.29 2.316-2.469 4.968-3.538 7.96-.917 2.578-1.618 4.897-2.096 6.962-.48 2.065-.721 3.785-.721 5.161v.689c0 .086.01.175.033.261a2.542 2.542 0 0 1-.787-.228c-.219-.11-.361-.242-.427-.394-.043-.11-.165-.267-.36-.475a3.722 3.722 0 0 0-.524-.475c-.196-.132-.36-.475-.49-1.031a8.183 8.183 0 0 1-.196-1.885h-.002ZM79.342 81.953c0-.196.015-.442.048-.737.033-.294.092-.688.18-1.178.087-.49.201-1.087.344-1.786.142-.698.322-1.539.54-2.522.044-.218.143-.569.295-1.049.153-.48.356-.988.607-1.524a9.841 9.841 0 0 1 .917-1.557c.36-.503.793-.874 1.296-1.115.37.086.863.312 1.473.67.612.361 1.135.86 1.572 1.492a11.495 11.495 0 0 0-1.262 1.704 16.89 16.89 0 0 0-.917 1.77 24.84 24.84 0 0 0-.755 1.9 60.228 60.228 0 0 1-.77 2.065c-.24.612-.46 1.24-.655 1.885s-.307 1.206-.327 1.686c0 .394-.005.671-.016.836-.01.163-.07.247-.18.247-.086 0-.261-.056-.523-.166a3.16 3.16 0 0 1-.803-.508 3.58 3.58 0 0 1-.736-.868c-.219-.348-.328-.765-.328-1.245ZM85.6 67.734c0-.132.034-.328.1-.59a1.284 1.284 0 0 1-.28-.49 1.808 1.808 0 0 1-.114-.589c0-.195.028-.464.081-.802a17.117 17.117 0 0 1 .541-2.327c.132-.427.262-.813.394-1.163.261 0 .584.07.968.213.38.142.77.328 1.163.556.394.229.754.48 1.082.755.328.274.58.53.754.77a39.83 39.83 0 0 0-.95.998c-.393.426-.774.873-1.145 1.343s-.711.912-1.016 1.326c-.307.414-.503.709-.59.884a1.287 1.287 0 0 1-.688-.343c-.195-.185-.294-.366-.294-.54H85.6ZM94.313 83.429a2.55 2.55 0 0 1-.836-1.31c-.142-.524-.213-.974-.213-1.344 0-.46.053-.851.165-1.179-.087 0-.285.175-.59.523-.307.348-.64.762-.998 1.242-.36.48-.716.948-1.064 1.405-.35.457-.612.795-.787 1.01a5.175 5.175 0 0 1-.803.72c-.251.172-.455.271-.607.294-.35 0-.716-.06-1.097-.18a4.534 4.534 0 0 1-1.082-.51 3.71 3.71 0 0 1-.884-.793 2.487 2.487 0 0 1-.508-1.054c0-.612.015-1.115.048-1.506.033-.394.104-.818.213-1.278.196-.83.486-1.77.869-2.817.381-1.049.826-2.08 1.326-3.096a21.528 21.528 0 0 1 1.686-2.85c.623-.884 1.283-1.577 1.982-2.08.195 0 .426.015.688.048.262.033.528.094.803.18.271.087.536.19.787.31s.465.28.638.475c-.196.219-.694.95-1.491 2.195-.798 1.244-1.687 3.035-2.67 5.372-.11.241-.241.59-.394 1.049-.152.46-.307.94-.46 1.443-.152.503-.279.993-.375 1.473-.1.48-.148.863-.148 1.145 0 .176.028.308.082.394.053.086.104.152.147.196.328-.133.742-.493 1.245-1.082.502-.59 1.201-1.496 2.095-2.72.219-.306.475-.656.77-1.05.294-.394.594-.813.901-1.262.305-.447.595-.912.87-1.392.27-.48.497-.96.67-1.443.086-.261.2-.574.343-.934.142-.361.317-.737.523-1.13.208-.394.447-.793.721-1.197a6.72 6.72 0 0 1 .965-1.13c.285 0 .59.032.917.099.328.066.64.147.935.246.295.099.551.208.77.328.218.119.381.246.492.376-.393.962-.83 1.912-1.31 2.85-.48.94-.93 1.861-1.344 2.768a24.12 24.12 0 0 0-1.049 2.703 8.643 8.643 0 0 0-.427 2.62c0 .46.038.86.115 1.197a6.107 6.107 0 0 0 .492 1.425.916.916 0 0 1 .115.394c0 .02-.023.053-.066.099-.023.02-.044.033-.066.033a2.32 2.32 0 0 1-.59-.1 6.826 6.826 0 0 1-.802-.278c-.295-.12-.59-.257-.884-.41a9.138 9.138 0 0 1-.836-.49l.008.003ZM118.755 74.107c-.35 0-.775.213-1.277.64-.503.427-1.044.973-1.621 1.641a48.15 48.15 0 0 0-1.801 2.215c-.622.81-1.224 1.613-1.801 2.413a335.81 335.81 0 0 0-1.62 2.248 29.52 29.52 0 0 1-1.278 1.674 3.415 3.415 0 0 1-1.244-.87c-.351-.38-.602-.855-.755-1.424.109-.676.262-1.38.46-2.11a19.49 19.49 0 0 1 .77-2.274 23.68 23.68 0 0 1 1.178-2.469 28.208 28.208 0 0 1 1.72-2.73c-.328 0-.775.223-1.344.673-.569.45-1.179 1.028-1.834 1.74a41.137 41.137 0 0 0-2.032 2.395 72.752 72.752 0 0 0-1.966 2.608 63.685 63.685 0 0 0-2.014 2.985c-.536.853-.922 1.356-1.163 1.509-.569-.414-.963-.864-1.179-1.344a6.903 6.903 0 0 1-.493-1.605c.02-.524.105-1.179.247-1.966.142-.788.343-1.595.607-2.423a31.237 31.237 0 0 1 1.948-4.75 107.184 107.184 0 0 1 2.309-4.326 5.636 5.636 0 0 1 1.653.622c.493.285 1.011.699 1.557 1.245-.218.678-.556 1.392-1.016 2.146l-1.442 2.375c-.503.83-.963 1.682-1.377 2.556a9.295 9.295 0 0 0-.818 2.654c.612-.874 1.339-1.877 2.179-3.015a48.728 48.728 0 0 1 2.589-3.21c.884-1.004 1.762-1.858 2.636-2.556.874-.698 1.659-1.049 2.36-1.049.261 0 .546.043.851.132.305.086.589.196.851.328.261.132.48.256.655.376.175.119.272.213.295.279-.11.437-.366 1.031-.77 1.786-.404.754-.836 1.544-1.293 2.375-.46.83-.884 1.633-1.278 2.407-.393.775-.622 1.392-.688 1.852a135.332 135.332 0 0 1 3.015-3.98c.94-1.191 1.824-2.212 2.654-3.063.831-.851 1.601-1.506 2.309-1.966.709-.46 1.382-.689 2.015-.689.436 0 .845.115 1.229.343.381.229.65.562.803.999-.196.655-.519 1.442-.966 2.36-.447.916-.901 1.884-1.359 2.9a44.76 44.76 0 0 0-1.229 2.997c-.361.983-.541 1.867-.541 2.654 0 .46.066.76.196.902.132.142.317.213.556.213.261 0 .508-.048.736-.147.229-.099.399-.147.508-.147a.47.47 0 0 1 .229.328c.02.132.033.25.033.36-.437.35-.884.64-1.344.869a3.404 3.404 0 0 1-1.539.343c-.523 0-.955-.087-1.295-.262a2.338 2.338 0 0 1-.836-.719 2.877 2.877 0 0 1-.46-1.046 5.943 5.943 0 0 1-.132-1.275c0-.742.099-1.479.295-2.208.196-.731.432-1.427.704-2.093.271-.665.561-1.285.868-1.864.305-.579.567-1.095.788-1.554l.002-.008Z" fill="#C02026"/><path d="M79.439 47.673c-10.463 5.967-24.656.14-24.656-2.918 0-.935 6.599 3.203 12.3-.98 4.324-3.17 7.532-.925 12.356 3.898" fill="#1D1D44"/><path d="M73.24 47.859c.263 12.042-11.622 21.745-14.31 20.287-1.264-.686 11.321-13.132 5.888-20.107" fill="#1D1D44"/><path d="M50.04 45.707c-1.412 1.057 12.096-18.006 24.768-14.434 9.896 2.79 14.61 16.433 12.631 18.216-1.861 1.68-12.847-11.775-19.2-8.275-8.541 4.707-9.735-1.844-18.199 4.493ZM64.668 55.971c-3.573 4.148-10.54 3.813-11.005 2.502-.143-.401 3.314.369 5.12-2.29 1.37-2.017 3.086-1.542 5.885-.212" fill="#1D1D44"/><path d="M62.042 56.992c1.946 5.119-1.669 11.085-3.043 10.87-.645-.102 2.852-7.349-.538-9.51" fill="#1D1D44"/><path d="M51.778 59.604c-.445.668 2.44-9.553 8.412-9.952 4.664-.31 8.758 4.816 8.184 5.883-.543 1.003-7.295-3.09-9.484-.623-2.944 3.318-4.45.691-7.112 4.694v-.002Z" fill="#1D1D44"/></svg>
